<?xml version="1.0" encoding="UTF-8" standalone="no"?>
<svg
   xmlns:dc="http://purl.org/dc/elements/1.1/"
   xmlns:cc="http://creativecommons.org/ns#"
   xmlns:rdf="http://www.w3.org/1999/02/22-rdf-syntax-ns#"
   xmlns:svg="http://www.w3.org/2000/svg"
   xmlns="http://www.w3.org/2000/svg"
   id="svg17730"
   version="1.1"
   viewBox="0 0 12.69984 12.69984"
   height="48"
   width="48">
  <defs
     id="defs17724" />
  <metadata
     id="metadata17727">
    <rdf:RDF>
      <cc:Work
         rdf:about="">
        <dc:format>image/svg+xml</dc:format>
        <dc:type
           rdf:resource="http://purl.org/dc/dcmitype/StillImage" />
        <dc:title></dc:title>
      </cc:Work>
    </rdf:RDF>
  </metadata>
  <path
     class="base"
     id="path6268"
     d="M 3.9687,6.34992 2.1166394,8.0559707 v -1.3229 L 0.52916,6.7536539 v -0.79374 l 1.5874794,-0.020583 v -1.3229 z"
     style="fill-opacity:1;fill-rule:evenodd;stroke:none;stroke-width:0.26458001px;stroke-linecap:butt;stroke-linejoin:miter;stroke-opacity:1" />
  <rect
     class="base"
     style="opacity:1;fill:none;fill-opacity:1;stroke-width:0.52916002;stroke-linecap:round;stroke-linejoin:round;stroke-miterlimit:4;stroke-dasharray:none;stroke-opacity:1"
     id="rect9686"
     width="2.6457987"
     height="2.6458001"
     x="5.02702"
     y="5.02702"
     ry="0.20797619" />
  <path
     class="base"
     id="path9696"
     d="m 3.7039898,11.90597 h -2.11664 c -0.5145802,0.01029 -0.79374,-0.26458 -0.79374,-0.79374 l 0,-2.1166402"
     style="fill:none;fill-rule:evenodd;stroke-width:0.52916002;stroke-linecap:butt;stroke-linejoin:miter;stroke-miterlimit:4;stroke-dasharray:none;stroke-opacity:1" />
  <path
     class="base"
     style="fill:none;fill-rule:evenodd;stroke-width:0.52916002;stroke-linecap:butt;stroke-linejoin:miter;stroke-miterlimit:4;stroke-dasharray:none;stroke-opacity:1"
     d="m 0.7936098,3.7039898 0,-2.11664 c -0.010292,-0.51458 0.26458,-0.79374 0.79374,-0.79374 l 2.11664,0"
     id="path9698" />
  <path
     class="base"
     style="fill:none;fill-rule:evenodd;stroke-width:0.52916002;stroke-linecap:butt;stroke-linejoin:miter;stroke-miterlimit:4;stroke-dasharray:none;stroke-opacity:1"
     d="M 8.9955898,11.90597 H 11.11223 c 0.51458,0.01029 0.79374,-0.26458 0.79374,-0.79374 V 8.9955898"
     id="path9700" />
  <path
     class="base"
     id="path9702"
     d="m 11.90597,3.7039898 v -2.11664 c 0.01029,-0.51458 -0.26458,-0.79374 -0.79374,-0.79374 l -2.1166402,0"
     style="fill:none;fill-rule:evenodd;stroke-width:0.52916002;stroke-linecap:butt;stroke-linejoin:miter;stroke-miterlimit:4;stroke-dasharray:none;stroke-opacity:1" />
  <path
     style="fill-opacity:1;fill-rule:evenodd;stroke:none;stroke-width:0.26458001px;stroke-linecap:butt;stroke-linejoin:miter;stroke-opacity:1"
     d="m 8.73114,6.34992 1.852061,1.7060507 v -1.3229 l 1.587479,0.020583 v -0.79374 l -1.587479,-0.020583 v -1.3229 z"
     id="path13325"
     class="base" />
  <path
     class="base"
     id="path13327"
     d="M 6.34992,3.70412 8.055971,1.852059 h -1.3229 L 6.753651,0.26458 h -0.79374 l -0.02058,1.587479 h -1.3229 z"
     style="fill-opacity:1;fill-rule:evenodd;stroke:none;stroke-width:0.26458001px;stroke-linecap:butt;stroke-linejoin:miter;stroke-opacity:1" />
  <path
     style="fill-opacity:1;fill-rule:evenodd;stroke:none;stroke-width:0.26458001px;stroke-linecap:butt;stroke-linejoin:miter;stroke-opacity:1"
     d="m 6.34992,8.73114 1.706051,1.852061 h -1.3229 l 0.02058,1.587479 h -0.79374 l -0.02058,-1.587479 h -1.3229 z"
     id="path13329"
     class="base" />
</svg>
