<?xml version="1.0" encoding="UTF-8" standalone="no"?>
<svg
   xmlns:dc="http://purl.org/dc/elements/1.1/"
   xmlns:cc="http://creativecommons.org/ns#"
   xmlns:rdf="http://www.w3.org/1999/02/22-rdf-syntax-ns#"
   xmlns:svg="http://www.w3.org/2000/svg"
   xmlns="http://www.w3.org/2000/svg"
   id="svg17730"
   version="1.1"
   viewBox="0 0 25.39968 25.39968"
   height="96"
   width="96">
  <defs
     id="defs17724" />
  <metadata
     id="metadata17727">
    <rdf:RDF>
      <cc:Work
         rdf:about="">
        <dc:format>image/svg+xml</dc:format>
        <dc:type
           rdf:resource="http://purl.org/dc/dcmitype/StillImage" />
        <dc:title></dc:title>
      </cc:Work>
    </rdf:RDF>
  </metadata>
  <g
     transform="translate(0,-271.6)"
     id="layer1">
    <path
       class="base"
       style="stroke-width:0.02235799"
       id="path5"
       d="m 16.206764,273.18748 c 0.770769,0.67137 1.019434,1.44214 1.019434,2.41184 0,0.94486 -0.323251,1.8897 -0.621596,2.7351 l -2.735098,7.43449 0.04973,0.14921 c 0.621597,1.56644 0.944849,2.31235 1.14379,4.0032 0.02491,0.27343 0.09945,0.57182 0.447563,0.57182 0.124354,0 0.323251,-0.0994 0.447562,-0.14921 0.348113,-0.14922 0.571872,-0.24862 0.96971,-0.24862 1.442135,0 2.411846,1.16865 2.411846,2.56106 0,1.39241 -0.795676,2.63565 -2.312353,2.63565 -1.14379,0 -1.964284,-0.59669 -2.411845,-1.64103 -0.323252,-0.79568 -0.273483,-1.54163 -0.273483,-2.38703 0.04973,-1.0443 0.07459,-1.86484 -0.472424,-2.80968 -0.273483,-0.44752 -0.621597,-0.89513 -1.168653,-1.01944 -1.19347,0.44752 -1.616214,1.93947 -1.616214,3.08321 l 0.04973,1.56645 c 0,0.69622 -0.04973,1.34268 -0.397838,1.96428 -0.4227,0.77082 -1.1935145,1.31787 -2.0886389,1.31787 -1.5913522,0 -2.4864767,-1.14379 -2.4864767,-2.68541 0,-1.26807 0.9697107,-2.5113 2.3124421,-2.5113 0.6713209,0 1.2432383,0.37297 1.4919038,0.37297 0.4227007,0 0.4475627,-0.67136 0.4475627,-0.94484 0.09945,-1.21838 0.671321,-2.7351 1.143745,-3.82912 l -2.8096426,-7.50907 c -0.3232519,-0.82053 -0.671321,-1.86483 -0.671321,-2.75996 0,-0.99462 0.3481139,-1.5913 1.0194349,-2.31244 l 3.6053147,9.39876 3.505868,-9.39876 z m -9.2993141,19.69274 c 0,0.96971 0.7210898,1.6908 1.6908005,1.6908 1.044297,0 1.7156626,-1.04425 1.7156626,-2.01401 0,-1.01943 -0.7708139,-1.59131 -1.7405246,-1.59131 -1.0691591,0 -1.6658937,0.92003 -1.6658937,1.9146 z M 18.568885,292.731 c 0,-1.01944 -0.671365,-1.81507 -1.74048,-1.81507 -0.969755,0 -1.665894,0.64647 -1.665894,1.64103 0,1.06912 0.8454,1.96429 1.939467,1.96429 0.969666,0 1.466996,-0.92003 1.466996,-1.79025 z" />
  </g>
</svg>
