<?xml version="1.0" encoding="UTF-8" standalone="no"?>
<svg
   xmlns:dc="http://purl.org/dc/elements/1.1/"
   xmlns:cc="http://creativecommons.org/ns#"
   xmlns:rdf="http://www.w3.org/1999/02/22-rdf-syntax-ns#"
   xmlns:svg="http://www.w3.org/2000/svg"
   xmlns="http://www.w3.org/2000/svg"
   id="svg17730"
   version="1.1"
   viewBox="0 0 50.79936 50.79936"
   height="192"
   width="192">
  <defs
     id="defs17724" />
  <metadata
     id="metadata17727">
    <rdf:RDF>
      <cc:Work
         rdf:about="">
        <dc:format>image/svg+xml</dc:format>
        <dc:type
           rdf:resource="http://purl.org/dc/dcmitype/StillImage" />
        <dc:title></dc:title>
      </cc:Work>
    </rdf:RDF>
  </metadata>
  <g
     transform="translate(0,-246.20032)"
     id="layer1">
    <path
       class="base"
       id="path5"
       d="m 6.3855836,249.38297 v 29.74188 H 18.652003 c 0.309382,0.86507 0.576467,1.74778 0.809481,2.64736 0.432839,1.67139 1.036923,3.28257 2.015374,4.72886 1.486269,2.19687 2.960845,4.40157 4.455715,6.59245 0.197219,0.28879 0.484095,0.51631 0.729532,0.77236 0.17246,0 1.311447,-0.91251 0.764271,-1.71224 -1.419369,-2.07558 -2.826344,-4.15923 -4.23633,-6.24124 -0.788443,-1.16394 -1.37978,-2.41927 -1.745548,-3.77948 -0.807296,-3.00164 -1.783934,-5.92926 -3.511558,-8.55975 -0.218765,-0.3331 -0.26624,-0.86767 -0.201775,-1.2787 0.121199,-0.77194 0.674093,-1.21733 1.439078,-1.36198 0.698173,-0.13197 1.407994,0.2263 1.814074,0.92274 1.066722,1.82953 2.110476,3.67321 3.195095,5.49172 0.149348,0.2502 0.45368,0.49637 0.730483,0.56439 0.694611,0.17063 1.126161,-0.27295 1.126421,-1.07217 0.0013,-6.56661 8.87e-4,-13.13295 0.0014,-19.69975 0,-0.18939 -0.0079,-0.38045 0.01237,-0.56821 0.109211,-1.01259 1.075867,-1.7209 2.073433,-1.52568 0.895915,0.17542 1.436653,0.8682 1.437173,1.8688 0.0029,4.87757 8.99e-4,9.75496 0.0023,14.63253 1.65e-4,0.70008 0.323427,1.10615 0.872773,1.11309 0.55178,0.007 0.886785,-0.40037 0.888002,-1.09074 0.0023,-1.32709 0.0012,-2.65406 0.0014,-3.98125 1.66e-4,-1.19253 0.705784,-1.9809 1.771723,-1.97778 1.071065,0.003 1.751594,0.77046 1.754113,1.9854 0.003,1.36167 -0.0072,2.72358 0.0052,4.085 0.0054,0.60112 0.385548,0.99054 0.904659,0.9789 0.507904,-0.0114 0.844707,-0.37952 0.852786,-0.96701 0.01104,-0.7927 -0.002,-1.5852 0.0048,-2.378 0.0096,-1.15368 0.725531,-1.93567 1.765058,-1.93923 1.043875,-0.003 1.757505,0.76796 1.764108,1.92591 0.0075,1.30991 0.0018,2.62022 0.0033,3.92986 8.21e-4,0.78131 0.316803,1.1981 0.899424,1.19114 0.568024,-0.006 0.8709,-0.40612 0.874201,-1.16259 0.0034,-0.75829 -0.04644,-1.52083 0.02047,-2.2733 0.03762,-0.42285 0.184311,-0.88464 0.424015,-1.23016 0.415202,-0.59826 1.226156,-0.76638 1.907822,-0.51729 0.746306,0.27289 1.176333,0.89001 1.17972,1.76506 0.0083,2.1026 0.03478,4.20608 -0.01761,6.30738 -0.02528,1.01103 -0.100519,2.04642 -0.349777,3.02044 -0.575236,2.24762 -1.251858,4.46976 -1.922577,6.69191 -0.552387,1.83032 -1.143205,3.64644 -1.238253,5.57927 -0.02823,0.57481 0.938573,1.26301 1.076453,1.26301 0.52554,-0.22789 0.690836,-0.64447 0.706213,-1.1959 0.045,-1.61634 0.559636,-3.13598 1.004118,-4.67082 0.735357,-2.53856 1.475571,-5.07627 2.155761,-7.62987 0.218679,-0.82024 0.255273,-1.68895 0.374997,-2.53552 v -7.34433 c -0.02835,-0.061 -0.06959,-0.11889 -0.08376,-0.18274 -0.544307,-2.48973 -2.919588,-3.62489 -5.213323,-2.48936 -0.05952,0.0295 -0.12005,0.0567 -0.216052,0.10132 -0.104342,-0.23813 -0.223425,-0.46115 -0.356438,-0.66862 v -17.86707 z"
       style="stroke-width:0.04344037" />
  </g>
</svg>
