<?xml version="1.0" encoding="UTF-8" standalone="no"?>
<svg
   xmlns:dc="http://purl.org/dc/elements/1.1/"
   xmlns:cc="http://creativecommons.org/ns#"
   xmlns:rdf="http://www.w3.org/1999/02/22-rdf-syntax-ns#"
   xmlns:svg="http://www.w3.org/2000/svg"
   xmlns="http://www.w3.org/2000/svg"
   xmlns:xlink="http://www.w3.org/1999/xlink"
   enable-background="new"
   id="svg4513"
   version="1.1"
   viewBox="0 0 16.933333 16.933334"
   height="64"
   width="64">
  <defs
     id="defs4507">
    <linearGradient
       id="linearGradient1337">
      <stop
         id="stop15357"
         offset="0"
         style="stop-color:#201d1c;stop-opacity:1"
         class="base" />
      <stop
         id="stop15359"
         offset="1"
         style="stop-color:#ef8900;stop-opacity:1" />
    </linearGradient>
    <linearGradient
       id="linearGradient1338">
      <stop
         id="stop5"
         offset="0"
         style="stop-color:#ffffff;stop-opacity:1"
         class="base" />
      <stop
         id="stop7"
         offset="1"
         style="stop-color:#ef8900;stop-opacity:1" />
    </linearGradient>
    <linearGradient
       xlink:href="#linearGradient1337"
       id="linearGradient15386"
       x1="4.8858538"
       y1="10.151136"
       x2="11.500437"
       y2="4.0657201"
       gradientUnits="userSpaceOnUse" />
    <linearGradient
       xlink:href="#linearGradient1338"
       id="linearGradient15388"
       gradientUnits="userSpaceOnUse"
       x1="6.4733539"
       y1="9.092803"
       x2="11.500437"
       y2="4.0657201" />
  </defs>
  <metadata
     id="metadata4510">
    <rdf:RDF>
      <cc:Work
         rdf:about="">
        <dc:format>image/svg+xml</dc:format>
        <dc:type
           rdf:resource="http://purl.org/dc/dcmitype/StillImage" />
        <dc:title></dc:title>
      </cc:Work>
    </rdf:RDF>
  </metadata>
  <g
     id="layer2-8"
     style="display:inline;fill:url(#linearGradient15386);fill-opacity:1"
     transform="matrix(0.92002491,0,0,0.92002491,0.61271647,1.0453123)">
    <path
       style="display:inline;opacity:1;fill-opacity:1;fill-rule:evenodd;stroke:none;stroke-width:0.27855384px;stroke-linecap:butt;stroke-linejoin:miter;stroke-opacity:1"
       d="M 0.62288665,3.4239284 0.62032465,4.2396715 1.73454,4.2703175 1.775402,11.55358 C 1.754971,11.727243 1.701158,11.811703 1.4968481,11.832134 H 0.66118686 v 0.835662 H 4.0038331 v -0.835662 l -0.866308,-0.04086 C 2.9842928,11.75041 2.889618,11.737458 2.8998334,11.553579 L 2.8896179,4.3111798 5.5014931,12.678011 6.7893718,12.667798 9.3808164,4.6585085 9.3706019,11.574013 c -0.010214,0.214525 -0.00273,0.278554 -0.2070455,0.278554 L 8.4606951,11.83214 v 0.835662 H 13.474665 V 11.83214 h -1.671324 c -0.20431,0 -0.278554,-0.05381 -0.278554,-0.278554 V 9.3251493 c 0,0 1.095479,0.022975 1.607364,0.030525 0.692644,0.010214 1.781658,-0.1380981 2.414496,-0.6790333 0.66871,-0.5715995 1.006796,-1.5359898 0.99211,-2.415584 C 16.525885,5.4900377 16.299422,4.6251989 15.730166,4.1149624 15.019896,3.478332 13.686309,3.4415052 12.958418,3.4040099 12.54583,3.3827565 12.290949,3.3937945 11.524787,3.3937945 H 8.5117721 L 6.6463549,9.685427 4.8088482,3.3937945 Z M 11.606511,4.3724728 c 0,0 1.126408,-0.064847 1.597143,0.040989 0.784583,0.1763986 0.994114,1.2068864 1.045379,1.9395348 0.04337,0.6198327 -0.165215,1.3560211 -0.647277,1.7480548 -0.527144,0.4286971 -1.415241,0.296447 -2.015676,0.303327 z"
       id="path5073"
       class="custom" />
  </g>
</svg>
