<?xml version="1.0" encoding="UTF-8" standalone="no"?>
<svg
   xmlns:dc="http://purl.org/dc/elements/1.1/"
   xmlns:cc="http://creativecommons.org/ns#"
   xmlns:rdf="http://www.w3.org/1999/02/22-rdf-syntax-ns#"
   xmlns:svg="http://www.w3.org/2000/svg"
   xmlns="http://www.w3.org/2000/svg"
   width="64"
   height="64"
   viewBox="0 0 16.933333 16.933334"
   version="1.1"
   id="svg4513"
   enable-background="new">
  <defs
     id="defs4507" />
  <metadata
     id="metadata4510">
    <rdf:RDF>
      <cc:Work
         rdf:about="">
        <dc:format>image/svg+xml</dc:format>
        <dc:type
           rdf:resource="http://purl.org/dc/dcmitype/StillImage" />
        <dc:title></dc:title>
      </cc:Work>
    </rdf:RDF>
  </metadata>
  <path
     id="path5072"
     d="M 2.6458334,8.46667 V 1.5875 H 12.7 l 2.645833,2.11667 V 15.34583 H 8.4666667"
     style="fill:none;fill-rule:evenodd;stroke-width:1.0583334;stroke-linecap:butt;stroke-linejoin:round;stroke-miterlimit:4;stroke-dasharray:none;stroke-opacity:1"
     class="base" />
  <path
     id="path5080"
     d="M 12.435417,1.85208 V 1.32292 l 2.645833,2.38125 v 0.52916 h -2.645833 z"
     style="fill-opacity:1;fill-rule:evenodd;stroke-width:0;stroke-linecap:butt;stroke-linejoin:miter;stroke-miterlimit:4;stroke-dasharray:none;stroke-opacity:1"
     class="base" />
  <rect
     y="11.641693"
     x="1.0583336"
     height="1.0583334"
     width="7.4083333"
     id="rect5084"
     style="fill-opacity:1;stroke-width:0;stroke-linecap:butt;stroke-linejoin:round;stroke-miterlimit:4;stroke-dasharray:none;stroke-opacity:1"
     class="success" />
  <rect
     transform="rotate(90)"
     style="fill-opacity:1;stroke-width:0;stroke-linecap:butt;stroke-linejoin:round;stroke-miterlimit:4;stroke-dasharray:none;stroke-opacity:1"
     id="rect5086"
     width="7.4083371"
     height="1.0583334"
     x="8.4666853"
     y="-5.2916665"
     class="success" />
  <rect
     style="fill-opacity:1;stroke-width:0;stroke-linecap:butt;stroke-linejoin:round;stroke-miterlimit:4;stroke-dasharray:none;stroke-opacity:1"
     id="rect5090"
     width="8.4666672"
     height="0.52917653"
     x="4.7624998"
     y="5.291657"
     class="base"
     ry="0.26458013" />
  <rect
     y="8.4666748"
     x="7.9375"
     height="0.52917248"
     width="5.291667"
     id="rect5092"
     style="fill-opacity:1;stroke-width:0;stroke-linecap:butt;stroke-linejoin:round;stroke-miterlimit:4;stroke-dasharray:none;stroke-opacity:1"
     class="base"
     ry="0.26458624" />
  <rect
     style="fill-opacity:1;stroke-width:0;stroke-linecap:butt;stroke-linejoin:round;stroke-miterlimit:4;stroke-dasharray:none;stroke-opacity:1"
     id="rect5094"
     width="3.175"
     height="0.52915418"
     x="10.054167"
     y="12.170834"
     class="base"
     ry="0.26457709" />
  <g
     id="layer2"
     style="display:none;opacity:0.24264706">
    <path
       d="M 15.541208,3.3696967 12.7,0.52916667 H 2.5379071 V 8.4756567 h 0.722416 v -7.22407 h 8.6688989 v 2.88963 h 2.889633 V 15.699727 H 9.0395896 v 0.72238 h 6.5016814 z m -10.8360839,0.0491 H 10.48439 v 0.72242 H 4.7051241 Z m 0,2.88963 h 8.6688679 v 0.72242 H 4.7051241 Z m 2.167217,2.8896 h 6.5016509 v 0.7224 H 6.8723411 Z M 9.7619422,12.087667 H 13.37396 v 0.72238 H 9.7619422 Z m -8.6688669,1.44483 h 2.8896329 v 2.88964 h 1.4448009 v -2.88964 l 2.889633,6.7e-4 v -1.44551 H 5.4275091 V 9.1980167 H 3.9826771 V 12.087657 H 1.0930443 Z"
       id="path4488"
       style="stroke-width:0.01552048" />
  </g>
</svg>
