<?xml version="1.0" encoding="UTF-8" standalone="no"?>
<svg
   xmlns:dc="http://purl.org/dc/elements/1.1/"
   xmlns:cc="http://creativecommons.org/ns#"
   xmlns:rdf="http://www.w3.org/1999/02/22-rdf-syntax-ns#"
   xmlns:svg="http://www.w3.org/2000/svg"
   xmlns="http://www.w3.org/2000/svg"
   width="64"
   height="64"
   viewBox="0 0 16.933333 16.933334"
   version="1.1"
   id="svg8">
  <defs
     id="defs2" />
  <metadata
     id="metadata14711">
    <rdf:RDF>
      <cc:Work
         rdf:about="">
        <dc:title></dc:title>
        <dc:format>image/svg+xml</dc:format>
        <dc:type
           rdf:resource="http://purl.org/dc/dcmitype/StillImage" />
      </cc:Work>
    </rdf:RDF>
  </metadata>
  <g
     transform="matrix(0.01268198,0,0,0.01268198,-2.5953637,1.8768752)"
     id="g17153" />
  <path
     class="base"
     style="stroke-width:0.01589964"
     id="path5"
     d="m 9.7084444,1.1548823 c -0.00661,-0.00591 -0.011859,-0.012592 -0.018506,-0.018507 l -0.013325,0.014055 C 9.3347068,1.1001247 8.9868872,1.0660672 8.630894,1.0660672 c -3.9963115,0 -7.2362452,3.2399653 -7.2362452,7.2362448 0,1.6865702 0.3759313,2.634602 1.3439333,3.864566 l 0.5254195,-0.525451 0.022196,-0.02146 C 2.6238503,10.755563 2.364082,10.335239 2.2057216,9.2066517 h 1.477172 C 3.7280171,9.1311598 3.7850331,9.0638409 3.836834,8.9935325 3.8782684,8.8122136 3.9315645,8.6361088 4.0004094,8.4666186 H 2.1428861 c -0.0015,-0.05549 -0.00815,-0.1087856 -0.00815,-0.1643067 0,-1.7087982 0.6682619,-3.2606985 1.7502325,-4.4218494 C 4.2261207,4.0521469 4.771542,4.3015487 5.464989,4.5354006 5.0860686,5.3990691 4.7767571,6.3929557 4.6250109,7.4586452 4.7367537,7.3335782 4.8529482,7.2136954 4.9817353,7.1048781 5.066862,7.033107 5.1467735,6.956121 5.2385463,6.893222 5.3155323,6.8399264 5.399864,6.798492 5.4820016,6.7526055 5.5389859,6.5098498 5.5959701,6.2671259 5.6736876,6.0206815 5.8150355,5.5707217 5.9822679,5.1452154 6.1613933,4.7463253 6.8474309,4.9342908 7.6281667,5.0860052 8.4666823,5.1326547 v 1.400186 C 8.7323652,6.6416263 8.9773147,6.7866944 9.2067157,6.9539268 V 5.1422899 c 0.7193307,-0.015518 1.4675363,-0.1132055 2.2223873,-0.3367226 0.491394,1.1530101 0.68009,2.3755973 0.567617,3.6610513 h -1.592603 c 0.09546,0.2346149 0.164275,0.4825226 0.205009,0.7400331 h 1.294359 c -0.07326,0.4240757 -0.176868,0.8547643 -0.314527,1.2921323 -0.140617,0.449228 -0.308581,0.874766 -0.486943,1.272162 -0.308579,-0.08436 -0.641645,-0.156898 -0.987239,-0.218302 -0.08805,0.138391 -0.179857,0.275318 -0.2856535,0.400385 -0.079941,0.09473 -0.1709532,0.179093 -0.2597363,0.264188 0.4225488,0.05848 0.8303428,0.133207 1.2033168,0.230895 -0.624602,1.195907 -1.2943584,2.0418 -1.5259846,2.31858 -0.012587,0.0014 -0.025912,7.64e-4 -0.039205,0.0022 v -2.250499 c -0.2279373,0.16577 -0.4736186,0.306385 -0.7400331,0.412214 v 1.859781 c -0.1561664,-0.0036 -0.3115697,-0.0088 -0.4647465,-0.02369 -0.3981306,-0.384819 -0.7518976,-0.780752 -1.0641982,-1.186289 -0.2323892,0.05848 -0.4721557,0.09915 -0.7230521,0.09915 -0.03994,0 -0.078449,-0.0066 -0.1184205,-0.0082 0.1990953,0.283427 0.4159028,0.566886 0.6593899,0.84885 -0.75412,-0.227937 -0.8407095,-0.202785 -1.4504925,-0.67122 l -0.014055,0.01259 -0.5254196,0.525451 c 1.2299645,0.967271 2.1787279,1.151516 3.8645667,1.151516 3.9963105,0 7.2362435,-3.239965 7.2362435,-7.2362446 0,-3.6292524 -2.674573,-6.6257305 -6.1587252,-7.1474614 z M 5.7809784,3.8642449 C 5.2325998,3.6836568 4.7819085,3.4905079 4.4533266,3.3351049 5.147505,2.7504752 5.9652553,2.3123446 6.860723,2.0577914 6.5402818,2.5151286 6.1517263,3.1293954 5.7809784,3.8642767 Z m 2.685672,0.5298715 C 7.7539969,4.3519187 7.0871975,4.2275836 6.4907066,4.0714491 7.0568611,2.9879839 7.6607294,2.1894721 7.9411991,1.8438778 8.1143778,1.8253703 8.2897831,1.8187246 8.4666504,1.8142723 v 2.5798123 z m 0.7400333,0.011098 V 1.8350056 c 0.049609,0.00442 0.099153,0.00815 0.1487563,0.014055 0.729699,0.7215576 1.313597,1.4786349 1.74505,2.2719951 C 10.458843,4.2993862 9.8216497,4.3904275 9.2066837,4.4052144 Z M 11.804303,3.890861 C 11.495722,3.2973591 11.10052,2.7030941 10.605406,2.114712 c 0.833301,0.2664144 1.592604,0.6986302 2.24239,1.2551495 -0.345594,0.20501 -0.693447,0.3841036 -1.043493,0.5209995 z m -1.474946,10.674575 c 0.332303,-0.466242 0.753387,-1.119717 1.151515,-1.909325 0.580942,0.191654 1.05755,0.398159 1.389089,0.558014 -0.725279,0.626063 -1.588884,1.093068 -2.540604,1.351343 z m 3.099348,-1.899722 c -0.33526,-0.171684 -0.899919,-0.43441 -1.632543,-0.681585 0.361876,-0.825923 0.671982,-1.765783 0.834794,-2.7781769 h 2.425141 C 14.871089,10.529152 14.287922,11.722866 13.428736,12.665714 Z M 12.724192,8.4666505 c 0.100641,-1.2388362 -0.0503,-2.5635628 -0.606094,-3.9030758 0.42999,-0.1716843 0.859185,-0.3892549 1.28326,-0.6557012 1.067883,1.1581935 1.72581,2.6989959 1.72581,4.3944702 0,0.05549 -0.0066,0.1095484 -0.0082,0.1642749 H 12.724224 Z M 9.8638788,9.535297 C 9.8290906,9.3147697 9.7699121,9.103113 9.6885058,8.9018238 9.5049602,8.4481754 9.2141246,8.0485536 8.8448388,7.736984 8.7885866,7.6896348 8.7242245,7.6518573 8.6642829,7.6082291 8.4681449,7.4654184 8.2587149,7.3403519 8.0307775,7.2478157 7.6955497,7.1109199 7.3321473,7.0302451 6.9473443,7.0302451 c -0.3300766,0 -0.641646,0.066619 -0.9383968,0.1665329 C 5.8224764,7.259677 5.6463084,7.3418146 5.4775815,7.4358135 5.4072735,7.4750215 5.3354705,7.5105735 5.2696142,7.5556962 5.1911654,7.6097235 5.1223517,7.6755796 5.0498175,7.7370158 4.9395376,7.8302834 4.839656,7.933122 4.7441628,8.0396815 4.6235481,8.1751146 4.5125051,8.3186885 4.4185381,8.4763176 4.3378637,8.6117507 4.2705443,8.7553246 4.2098395,8.902587 4.1506291,9.0476554 4.1047429,9.197875 4.069223,9.3532778 4.0218423,9.5575247 3.990774,9.7677179 3.990774,9.9875155 c 0,0.5469145 0.1591235,1.0538595 0.4188919,1.4934205 l -0.1095483,0.108786 -0.4203548,0.420354 -0.1050966,0.104333 -0.018507,0.01851 -0.4499599,0.449228 -2.2401643,2.240165 1.0457196,1.044955 3.3421046,-3.340608 c 0.017044,0.01036 0.03552,0.01774 0.053264,0.02738 0.3944702,0.222754 0.8414409,0.361876 1.3217373,0.381878 0.03994,0.0014 0.077717,0.0082 0.1184204,0.0082 0.2501331,0 0.4891686,-0.0407 0.7215576,-0.09915 0.1250666,-0.0318 0.2442185,-0.07623 0.3619074,-0.122842 0.2279375,-0.09028 0.4381305,-0.210892 0.6335054,-0.352271 0.1087845,-0.07918 0.2124203,-0.164275 0.3093441,-0.25678 0.076227,-0.07326 0.1539399,-0.145068 0.2227537,-0.226474 0.09028,-0.10732 0.1687268,-0.223518 0.2442187,-0.341907 0.2871467,-0.452153 0.4625527,-0.980594 0.4625527,-1.5563209 0,-0.1554025 -0.016279,-0.3056225 -0.039205,-0.4529162 z m -0.8118349,1.115265 c -0.084361,0.266414 -0.2168404,0.506944 -0.3877929,0.719331 -0.00518,0.0066 -0.00887,0.01483 -0.014819,0.02146 -0.036251,0.04366 -0.079944,0.07918 -0.119152,0.119883 -0.283427,0.294525 -0.6438715,0.506945 -1.05386,0.60832 -0.090278,0.0222 -0.1790937,0.04738 -0.2730919,0.05848 -0.085127,0.0096 -0.1679959,0.02591 -0.2560798,0.02591 -0.1339704,0 -0.2627257,-0.01851 -0.3892869,-0.04443 -0.085126,-0.01703 -0.1687265,-0.03624 -0.250864,-0.0607 C 6.2005384,12.066266 6.0962047,12.029243 5.9970228,11.981898 5.7394803,11.859062 5.5108117,11.689604 5.3205885,11.481604 4.9579494,11.086403 4.7307753,10.564672 4.7307753,9.985957 c 0,-0.5454214 0.2050101,-1.0390417 0.5320974,-1.4253396 0.048081,-0.056984 0.107323,-0.1028713 0.1605864,-0.1546719 0.3974274,-0.386329 0.9265357,-0.6379252 1.5245211,-0.6379252 0.3974272,0 0.7629918,0.1154629 1.084165,0.2997085 0.1953747,0.1117425 0.3781889,0.2434553 0.5313657,0.4070306 0.037745,0.040703 0.067351,0.088052 0.1021395,0.1310132 0.075492,0.093267 0.1435735,0.1909225 0.2035147,0.2952881 0.1117427,0.1953747 0.1998271,0.406267 0.2479077,0.6334735 0.031104,0.1457683 0.049609,0.2960192 0.049609,0.4514548 -0.0022,0.233852 -0.048077,0.453648 -0.1147319,0.664573 z" />
</svg>
