<?xml version="1.0" encoding="UTF-8" standalone="no"?>
<svg
   xmlns:dc="http://purl.org/dc/elements/1.1/"
   xmlns:cc="http://creativecommons.org/ns#"
   xmlns:rdf="http://www.w3.org/1999/02/22-rdf-syntax-ns#"
   xmlns:svg="http://www.w3.org/2000/svg"
   xmlns="http://www.w3.org/2000/svg"
   width="64"
   height="64"
   viewBox="0 0 16.933333 16.933334"
   version="1.1"
   id="svg8">
  <defs
     id="defs2" />
  <metadata
     id="metadata14711">
    <rdf:RDF>
      <cc:Work
         rdf:about="">
        <dc:title></dc:title>
        <dc:format>image/svg+xml</dc:format>
        <dc:type
           rdf:resource="http://purl.org/dc/dcmitype/StillImage" />
      </cc:Work>
    </rdf:RDF>
  </metadata>
  <path
     class="base"
     id="path16507"
     d="M 1.5875,2.6458334 H 15.345833 V 14.2875 H 1.5875 Z"
     style="fill:none;fill-rule:evenodd;stroke-width:1.0583334;stroke-linecap:round;stroke-linejoin:round;stroke-miterlimit:4;stroke-dasharray:none;stroke-opacity:1" />
  <path
     class="base"
     id="path16509"
     d="m 8.4666669,1.5875 -2e-7,2.1166667 m 0,9.5250003 2e-7,2.38125"
     style="fill:none;fill-rule:evenodd;stroke-width:1.0583334;stroke-linecap:round;stroke-linejoin:miter;stroke-miterlimit:4;stroke-dasharray:none;stroke-opacity:1" />
  <path
     class="base"
     style="stroke-width:0.01546175"
     id="path5"
     d="M 13.888628,6.5424263 C 13.85479,6.3279779 13.79724,6.1221465 13.718086,5.9264108 13.539594,5.4852427 13.256769,5.0966344 12.897653,4.7936414 12.842956,4.7476834 12.78036,4.7108605 12.72207,4.6684343 12.531333,4.5295621 12.327672,4.4079336 12.106011,4.3179484 11.780016,4.184821 11.426622,4.1063723 11.052417,4.1063723 c -0.320987,0 -0.623975,0.064793 -0.912553,0.1619452 C 9.9585286,4.3294378 9.7872118,4.4093651 9.6231323,4.500763 9.5547605,4.5389043 9.4849347,4.573467 9.420893,4.6173437 9.3446007,4.669894 9.2776858,4.7339338 9.2071499,4.7936697 9.0999069,4.8843613 9.0027762,4.9843857 8.9099131,5.0879983 8.7926195,5.2197131 8.6846344,5.3593292 8.5932551,5.5126103 8.5148065,5.644325 8.4493371,5.7839412 8.3903057,5.9271454 8.3327264,6.0682118 8.2881029,6.2142978 8.253562,6.3654223 8.207491,6.5640491 8.17727,6.768449 8.17727,6.9821913 c 0,0.5318502 0.1547407,1.0248339 0.407355,1.4522901 L 8.4780946,8.5402693 8.0693155,8.9490504 7.9671138,9.0505062 7.9491158,9.0684932 7.5115488,9.5053482 5.3330805,11.68383 6.3500001,12.7 9.60006,9.4513946 c 0.016575,0.010077 0.034543,0.017235 0.051797,0.026651 0.383607,0.216624 0.818268,0.351918 1.285336,0.371365 0.03884,9.42e-4 0.07557,0.0075 0.115159,0.0075 0.243244,0 0.475696,-0.03955 0.701685,-0.09646 0.121622,-0.03089 0.237492,-0.07412 0.351939,-0.119462 0.221661,-0.08777 0.426065,-0.2050768 0.616058,-0.3425644 0.10579,-0.077036 0.206571,-0.1597512 0.300825,-0.2497174 0.07413,-0.071197 0.1497,-0.1410666 0.216619,-0.220231 0.08779,-0.1043661 0.164079,-0.2173586 0.237493,-0.3324888 0.279238,-0.4397085 0.449813,-0.95359 0.449813,-1.5134575 0,-0.1511246 -0.01583,-0.2972105 -0.03813,-0.440443 z m -0.789476,1.0845513 c -0.08204,0.2590785 -0.210868,0.4929837 -0.377113,0.6995213 -0.0051,0.00659 -0.0087,0.01441 -0.01441,0.020908 -0.03525,0.042474 -0.07774,0.077036 -0.115871,0.1165808 -0.275621,0.2864177 -0.626138,0.4929837 -1.024837,0.5915673 -0.08779,0.021566 -0.174161,0.046053 -0.26557,0.056883 -0.08279,0.0097 -0.163369,0.025145 -0.249027,0.025145 -0.13028,0 -0.255491,-0.017987 -0.378567,-0.043227 C 10.590967,9.07778 10.509679,9.059133 10.429804,9.035306 10.326179,9.0035692 10.22472,8.9675943 10.128268,8.9216081 9.8778197,8.802155 9.6554483,8.6373564 9.4704636,8.4350847 9.1178126,8.0507707 8.8968944,7.5434063 8.8968944,6.9806379 c 0,-0.5304093 0.1993641,-1.010425 0.5174432,-1.3860936 C 9.4610966,5.5390743 9.5187054,5.4945104 9.5705014,5.4441356 9.9569832,5.0684482 10.471519,4.823788 11.053035,4.823788 c 0.386483,0 0.741979,0.1122768 1.054308,0.2914469 0.189994,0.1086604 0.367773,0.2367494 0.51673,0.3958222 0.03671,0.039554 0.0655,0.085606 0.09933,0.1274015 0.07341,0.090691 0.139619,0.1856683 0.19791,0.2871525 0.108666,0.1900003 0.194324,0.3950783 0.24108,0.6160343 0.03024,0.141754 0.04825,0.2878587 0.04825,0.439021 -0.0022,0.2274166 -0.04676,0.4411491 -0.111573,0.6462649 z" />
</svg>
