<?xml version="1.0" encoding="UTF-8" standalone="no"?>
<svg
   xmlns:dc="http://purl.org/dc/elements/1.1/"
   xmlns:cc="http://creativecommons.org/ns#"
   xmlns:rdf="http://www.w3.org/1999/02/22-rdf-syntax-ns#"
   xmlns:svg="http://www.w3.org/2000/svg"
   xmlns="http://www.w3.org/2000/svg"
   width="64"
   height="64"
   viewBox="0 0 16.933333 16.933334"
   version="1.1"
   id="svg4513"
   enable-background="new">
  <defs
     id="defs4507" />
  <path
     class="base"
     id="path15333"
     d="M 4.7624999,15.345833 V 1.5874995 h 7.9374991 l 2.645834,2.6458334 V 15.345833 Z"
     style="fill:none;fill-rule:evenodd;stroke-width:1.0583334;stroke-linecap:round;stroke-linejoin:round;stroke-miterlimit:4;stroke-dasharray:none;stroke-opacity:1" />
  <path
     class="base"
     id="path15335"
     d="M 12.170833,1.3229167 V 4.7625 h 3.439584 L 15.345833,3.96875 12.7,1.3229167 Z"
     style="fill:none;fill-rule:evenodd;stroke-width:0.5291667;stroke-linecap:round;stroke-linejoin:round;stroke-miterlimit:4;stroke-dasharray:none;stroke-opacity:1" />
  <rect
     class="base"
     ry="1.058336"
     y="6.3499999"
     x="1.0583334"
     height="5.291667"
     width="11.641668"
     id="rect15337"
     style="opacity:1;fill-opacity:1;stroke:none;stroke-width:0.5291667;stroke-linecap:round;stroke-linejoin:round;stroke-miterlimit:4;stroke-dasharray:none;stroke-opacity:1" />
  <g
     id="g16503">
    <path
       class="light"
       id="path15343"
       style="font-style:normal;font-variant:normal;font-weight:bold;font-stretch:normal;font-size:medium;line-height:125%;font-family:Consolas;-inkscape-font-specification:'Consolas Bold';letter-spacing:0px;word-spacing:0px;fill-opacity:1;stroke:none;stroke-width:0.14578404px;stroke-linecap:butt;stroke-linejoin:miter;stroke-opacity:1"
       d="m 4.7868167,8.2765538 q 0,0.2904291 -0.09681,0.538148 Q 4.5931972,9.0595735 4.4024252,9.2389562 4.2116531,9.4183389 3.9269187,9.5179959 3.6421842,9.617653 3.2663348,9.617653 H 2.9104167 v 1.195884 H 2.2042753 V 7.0920585 h 1.0905329 q 0.3616127,0 0.6378051,0.079726 0.2790398,0.076878 0.4669645,0.2277876 0.1907721,0.1509092 0.2875818,0.3730021 0.099657,0.2192455 0.099657,0.5039796 z m -0.7346149,0.048405 q 0,-0.1480619 -0.048405,-0.2676504 Q 3.9582394,7.9348724 3.8614297,7.8494521 3.7674674,7.7640318 3.6222528,7.7184743 3.4770382,7.6729167 3.2777241,7.6729167 H 2.9104167 v 1.363878 h 0.3900862 q 0.18223,0 0.3217499,-0.048405 0.1395199,-0.051252 0.2334822,-0.1452144 0.09681,-0.093962 0.1452146,-0.2249402 0.051252,-0.1309779 0.051252,-0.2932763 z" />
    <path
       class="light"
       id="path15345"
       style="font-style:normal;font-variant:normal;font-weight:bold;font-stretch:normal;font-size:medium;line-height:125%;font-family:Consolas;-inkscape-font-specification:'Consolas Bold';letter-spacing:0px;word-spacing:0px;fill-opacity:1;stroke:none;stroke-width:0.14578404px;stroke-linecap:butt;stroke-linejoin:miter;stroke-opacity:1"
       d="m 8.4598823,8.9001222 q 0,0.4327963 -0.1081991,0.785867 Q 8.2463315,10.03906 8.0185439,10.289627 7.7936037,10.537346 7.440533,10.674018 7.0874623,10.807843 6.5948718,10.807843 H 5.6495534 V 7.0863638 h 1.1019223 q 0.4271017,0 0.7460042,0.1081991 0.3217499,0.1053517 0.5353008,0.3274446 0.2135508,0.2220928 0.3189025,0.5637742 0.1081991,0.3416813 0.1081991,0.8143405 z m -0.7516989,0.045557 q 0,-0.3018185 -0.048405,-0.5381481 Q 7.6113737,8.171202 7.4946326,8.0089034 7.3807388,7.8437574 7.1871194,7.7583371 6.9935,7.6729167 6.7059182,7.6729167 H 6.3500001 V 10.22129 h 0.3075132 q 0.5153694,0 0.7830197,-0.3075132 0.2676504,-0.3075132 0.2676504,-0.9680976 z" />
    <path
       class="light"
       id="path15347"
       style="font-style:normal;font-variant:normal;font-weight:bold;font-stretch:normal;font-size:medium;line-height:125%;font-family:Consolas;-inkscape-font-specification:'Consolas Bold';letter-spacing:0px;word-spacing:0px;fill-opacity:1;stroke:none;stroke-width:0.14578404px;stroke-linecap:butt;stroke-linejoin:miter;stroke-opacity:1"
       d="m 10.054167,7.6729167 v 1.0307387 h 1.406588 V 9.278819 h -1.406588 v 1.523329 H 9.3423308 V 7.0806691 h 2.1981502 v 0.5922476 z" />
  </g>
  <metadata
     id="metadata16505">
    <rdf:RDF>
      <cc:Work
         rdf:about="">
        <dc:title></dc:title>
      </cc:Work>
    </rdf:RDF>
  </metadata>
</svg>
