<?xml version="1.0" encoding="UTF-8" standalone="no"?>
<svg
   xmlns:dc="http://purl.org/dc/elements/1.1/"
   xmlns:cc="http://creativecommons.org/ns#"
   xmlns:rdf="http://www.w3.org/1999/02/22-rdf-syntax-ns#"
   xmlns:svg="http://www.w3.org/2000/svg"
   xmlns="http://www.w3.org/2000/svg"
   id="svg17730"
   version="1.1"
   viewBox="0 0 25.39968 25.39968"
   height="96"
   width="96">
  <defs
     id="defs17724" />
  <metadata
     id="metadata17727">
    <rdf:RDF>
      <cc:Work
         rdf:about="">
        <dc:format>image/svg+xml</dc:format>
        <dc:type
           rdf:resource="http://purl.org/dc/dcmitype/StillImage" />
        <dc:title></dc:title>
      </cc:Work>
    </rdf:RDF>
  </metadata>
  <g
     transform="translate(0,-271.6)"
     id="layer1">
    <g
       transform="matrix(-1,0,0,1,25.39968,0)"
       id="g18882">
      <rect
         style="opacity:1;fill:none;fill-opacity:1;stroke-width:1.58747995;stroke-linecap:round;stroke-linejoin:round;stroke-miterlimit:4;stroke-dasharray:none;stroke-opacity:1"
         id="rect18277"
         width="20.637239"
         height="20.637228"
         x="2.3812201"
         y="273.98123"
         ry="0.52916002"
         class="base" />
      <path
         style="fill:none;fill-rule:evenodd;stroke-width:0.79373997;stroke-linecap:butt;stroke-linejoin:miter;stroke-miterlimit:4;stroke-dasharray:none;stroke-opacity:1"
         d="m 6.87908,274.51038 v 6.6145"
         id="path18869"
         class="base" />
      <path
         class="base"
         id="path18899"
         d="m 6.87908,290.64976 v 4.49786"
         style="fill:none;fill-rule:evenodd;stroke-width:0.79373997;stroke-linecap:butt;stroke-linejoin:miter;stroke-miterlimit:4;stroke-dasharray:none;stroke-opacity:1" />
    </g>
    <path
       class="base"
       style="stroke-width:0.01641791"
       id="path5"
       d="m 19.001291,285.05483 c -0.03593,-0.22771 -0.09704,-0.44627 -0.181089,-0.65411 -0.189529,-0.46845 -0.489845,-0.88109 -0.871168,-1.20282 -0.05808,-0.0488 -0.124546,-0.0879 -0.186441,-0.13295 -0.202532,-0.14746 -0.418788,-0.27661 -0.654156,-0.37216 -0.346154,-0.14136 -0.721402,-0.22466 -1.118748,-0.22466 -0.340837,0 -0.662562,0.0688 -0.968985,0.17196 -0.19255,0.0649 -0.374461,0.14977 -0.548687,0.24682 -0.0726,0.0405 -0.146744,0.0772 -0.214746,0.12379 -0.08101,0.0558 -0.152063,0.1238 -0.226961,0.18723 -0.113875,0.0963 -0.217012,0.20251 -0.315618,0.31253 -0.124547,0.13986 -0.23921,0.28811 -0.33624,0.45087 -0.0833,0.13986 -0.152818,0.28811 -0.2155,0.44017 -0.06114,0.14979 -0.108523,0.30491 -0.1452,0.46538 -0.04892,0.21091 -0.08101,0.42795 -0.08101,0.65491 0,0.56474 0.16431,1.08821 0.432546,1.5421 l -0.113118,0.11233 -0.434058,0.43406 -0.108522,0.10773 -0.01911,0.0191 -0.464627,0.46387 -2.3131851,2.3132 1.0798061,1.07901 3.451044,-3.4495 c 0.0176,0.0107 0.03668,0.0183 0.055,0.0283 0.407329,0.23002 0.868869,0.37368 1.364821,0.39433 0.04124,10e-4 0.08025,0.008 0.12228,0.008 0.258287,0 0.505114,-0.042 0.745078,-0.10243 0.129143,-0.0328 0.252179,-0.0787 0.373704,-0.12685 0.235368,-0.0932 0.452412,-0.21776 0.654155,-0.36375 0.112331,-0.0818 0.219345,-0.16963 0.319428,-0.26516 0.07872,-0.0756 0.158958,-0.14979 0.230015,-0.23385 0.09322,-0.11082 0.174226,-0.2308 0.252179,-0.35305 0.296506,-0.4669 0.47763,-1.01256 0.47763,-1.60705 0,-0.16047 -0.01681,-0.31559 -0.04049,-0.46768 z m -0.838297,1.15162 c -0.08711,0.2751 -0.223909,0.52347 -0.400434,0.74278 -0.0054,0.007 -0.0092,0.0153 -0.0153,0.0222 -0.03743,0.0451 -0.08255,0.0818 -0.123037,0.12379 -0.292665,0.30413 -0.664858,0.52347 -1.088212,0.62815 -0.09322,0.0229 -0.184931,0.0489 -0.281993,0.0604 -0.08791,0.0103 -0.173472,0.0267 -0.264427,0.0267 -0.138337,0 -0.27129,-0.0191 -0.401977,-0.0459 -0.08791,-0.0176 -0.174226,-0.0374 -0.259041,-0.0627 -0.110032,-0.0337 -0.217766,-0.0719 -0.320181,-0.12073 -0.265937,-0.12684 -0.50206,-0.30183 -0.698484,-0.51661 -0.374459,-0.40808 -0.609039,-0.94682 -0.609039,-1.54439 0,-0.56321 0.211693,-1.07291 0.549442,-1.47181 0.04965,-0.0589 0.110822,-0.10622 0.165821,-0.15971 0.410382,-0.39892 0.956737,-0.65871 1.574214,-0.65871 0.410383,0 0.787863,0.11922 1.119506,0.30947 0.201743,0.11538 0.390516,0.25139 0.548685,0.4203 0.03898,0.042 0.06955,0.0909 0.10547,0.13528 0.07795,0.0963 0.148252,0.19715 0.210148,0.30491 0.115385,0.20175 0.206341,0.41951 0.255989,0.65413 0.03211,0.15052 0.05123,0.30566 0.05123,0.46617 -0.0023,0.24148 -0.04965,0.46843 -0.118473,0.68623 z" />
  </g>
</svg>
