<!-- Generated by IcoMoon.io -->
<svg version="1.1" xmlns="http://www.w3.org/2000/svg" width="1024" height="1024" viewBox="0 0 1024 1024">
<title></title>
<g id="icomoon-ignore">
</g>
<path class="base" d="M37.19 974.972h958.982v-920h-958.982v920zM956.488 935.288h-879.614v-840.628h879.616v840.628zM517.098 286.794l-8.94 12.526-0.214-0.148-26.716 38.188h-354.894v38.268h328.12l-46.138 65.948h-281.984v38.27h255.212l-46.136 65.948h-209.074v38.27h182.302l-46.136 65.946h-136.168v38.27h784.158v-38.27h-139.616l-46.076-65.946h185.692v-38.27h-212.432l-46.076-65.948h258.51v-38.27h-285.25l-46.076-65.948h331.326v-38.268h-358.062l-35.332-50.568zM706.312 627.716h-378.946l30.538-43.658h317.854l30.554 43.658zM648.976 545.792h-264.304l46.13-65.948h172.022l46.154 65.948zM576.042 441.576h-118.472l46.13-65.948h26.188l46.154 65.948zM126.334 858.436h784.158v38.27h-784.158v-38.27zM126.334 754.222h784.158v38.27h-784.158v-38.27zM126.334 233.146h784.158v38.268h-784.158v-38.268zM122.868 128.93h784.158v38.268h-784.158v-38.268z"></path>
</svg>
