<?xml version="1.0" encoding="UTF-8" standalone="no"?>
<svg
   xmlns:dc="http://purl.org/dc/elements/1.1/"
   xmlns:cc="http://creativecommons.org/ns#"
   xmlns:rdf="http://www.w3.org/1999/02/22-rdf-syntax-ns#"
   xmlns:svg="http://www.w3.org/2000/svg"
   xmlns="http://www.w3.org/2000/svg"
   id="svg17730"
   version="1.1"
   viewBox="0 0 12.69984 12.69984"
   height="48"
   width="48">
  <defs
     id="defs17724" />
  <metadata
     id="metadata17727">
    <rdf:RDF>
      <cc:Work
         rdf:about="">
        <dc:format>image/svg+xml</dc:format>
        <dc:type
           rdf:resource="http://purl.org/dc/dcmitype/StillImage" />
        <dc:title></dc:title>
      </cc:Work>
    </rdf:RDF>
  </metadata>
  <path
     class="base"
     id="path6170"
     transform="scale(0.26458)"
     d="m 2.9003906,8.0019531 a 1.001409,1.001409 0 0 0 0.097656,1.9999999 H 13 A 1.0002587,1.0002587 0 1 0 13,8.0019531 H 2.9980469 a 1.0001,1.0001 0 0 0 -0.097656,0 z m 15.9980474,0 a 1.0015926,1.0015926 0 0 0 0.103515,1.9999999 h 9.994141 a 1.0002587,1.0002587 0 1 0 0,-1.9999999 h -9.994141 a 1.0001,1.0001 0 0 0 -0.103515,0 z m 16.003906,0 a 1.001409,1.001409 0 0 0 0.0957,1.9999999 H 45 A 1.0002587,1.0002587 0 1 0 45,8.0019531 H 34.998047 a 1.0001,1.0001 0 0 0 -0.0957,0 z M 2.9003906,12.003906 a 1.001409,1.001409 0 0 0 0.097656,2 H 13 a 1.0002587,1.0002587 0 1 0 0,-2 H 2.9980469 a 1.0001,1.0001 0 0 0 -0.097656,0 z m 15.9980474,0 a 1.0015926,1.0015926 0 0 0 0.103515,2 h 9.994141 a 1.0002587,1.0002587 0 1 0 0,-2 h -9.994141 a 1.0001,1.0001 0 0 0 -0.103515,0 z m 16.003906,0 a 1.001409,1.001409 0 0 0 0.0957,2 H 45 a 1.0002587,1.0002587 0 1 0 0,-2 H 34.998047 a 1.0001,1.0001 0 0 0 -0.0957,0 z M 2.9980469,15.996094 a 1.0009765,1.0009765 0 0 0 0,2.001953 H 13 a 1.0009765,1.0009765 0 0 0 0,-2.001953 z m 16.0039061,0 a 1.0009765,1.0009765 0 0 0 0,2.001953 h 9.994141 a 1.0009765,1.0009765 0 0 0 0,-2.001953 z m 15.996094,0 a 1.0009765,1.0009765 0 0 0 0,2.001953 H 45 a 1.0009765,1.0009765 0 0 0 0,-2.001953 z M 2.9980469,19.998047 a 1.0002587,1.0002587 0 0 0 0,2 H 13 a 1.0002587,1.0002587 0 0 0 0,-2 z m 16.0039061,0 a 1.0002587,1.0002587 0 0 0 0,2 h 9.994141 a 1.0002587,1.0002587 0 0 0 0,-2 z m 15.996094,0 a 1.0002587,1.0002587 0 0 0 0,2 H 45 a 1.0002587,1.0002587 0 0 0 0,-2 z m -32.0000001,4 a 1.0009765,1.0009765 0 1 0 0,2.001953 H 13 a 1.0009765,1.0009765 0 1 0 0,-2.001953 z m 16.0039061,0 a 1.0009765,1.0009765 0 1 0 0,2.001953 h 9.994141 a 1.0009765,1.0009765 0 1 0 0,-2.001953 z m 15.996094,0 a 1.0009765,1.0009765 0 1 0 0,2.001953 H 45 a 1.0009765,1.0009765 0 1 0 0,-2.001953 z M 2.9980469,28 a 1.0002587,1.0002587 0 0 0 0,2 H 13 a 1.0002587,1.0002587 0 0 0 0,-2 z m 16.0039061,0 a 1.0002587,1.0002587 0 0 0 0,2 h 9.994141 a 1.0002587,1.0002587 0 0 0 0,-2 z m 15.996094,0 a 1.0002587,1.0002587 0 0 0 0,2 H 45 a 1.0002587,1.0002587 0 0 0 0,-2 z M 2.9003906,32 a 1.0021667,1.0021667 0 0 0 0.097656,2.001953 H 13 A 1.0009765,1.0009765 0 0 0 13,32 H 2.9980469 a 1.0001,1.0001 0 0 0 -0.097656,0 z m 15.9980474,0 a 1.0023137,1.0023137 0 0 0 0.103515,2.001953 h 9.994141 a 1.0009765,1.0009765 0 0 0 0,-2.001953 h -9.994141 a 1.0001,1.0001 0 0 0 -0.103515,0 z m 16.003906,0 a 1.0021196,1.0021196 0 0 0 0.0957,2.001953 H 45 A 1.0009765,1.0009765 0 0 0 45,32 H 34.998047 a 1.0001,1.0001 0 0 0 -0.0957,0 z M 2.9003906,36.001953 a 1.0014099,1.0014099 0 0 0 0.097656,2 H 13 a 1.0002597,1.0002597 0 1 0 0,-2 H 2.9980469 a 1.0001,1.0001 0 0 0 -0.097656,0 z m 15.9980474,0 a 1.0015935,1.0015935 0 0 0 0.103515,2 h 9.994141 a 1.0002597,1.0002597 0 1 0 0,-2 h -9.994141 a 1.0001,1.0001 0 0 0 -0.103515,0 z m 16.003906,0 a 1.0014099,1.0014099 0 0 0 0.0957,2 H 45 a 1.0002597,1.0002597 0 1 0 0,-2 H 34.998047 a 1.0001,1.0001 0 0 0 -0.0957,0 z"
     style="color:#000000;font-style:normal;font-variant:normal;font-weight:normal;font-stretch:normal;font-size:medium;line-height:normal;font-family:sans-serif;font-variant-ligatures:normal;font-variant-position:normal;font-variant-caps:normal;font-variant-numeric:normal;font-variant-alternates:normal;font-feature-settings:normal;text-indent:0;text-align:start;text-decoration:none;text-decoration-line:none;text-decoration-style:solid;text-decoration-color:#000000;letter-spacing:normal;word-spacing:normal;text-transform:none;writing-mode:lr-tb;direction:ltr;text-orientation:mixed;dominant-baseline:auto;baseline-shift:baseline;text-anchor:start;white-space:normal;shape-padding:0;clip-rule:nonzero;display:inline;overflow:visible;visibility:visible;opacity:1;isolation:auto;mix-blend-mode:normal;color-interpolation:sRGB;color-interpolation-filters:linearRGB;solid-color:#000000;solid-opacity:1;vector-effect:none;fill:#000000;fill-opacity:1;fill-rule:evenodd;stroke:none;stroke-width:2;stroke-linecap:round;stroke-linejoin:miter;stroke-miterlimit:4;stroke-dasharray:none;stroke-dashoffset:0;stroke-opacity:1;color-rendering:auto;image-rendering:auto;shape-rendering:auto;text-rendering:auto;enable-background:accumulate" />
</svg>
