<?xml version="1.0" encoding="UTF-8" standalone="no"?>
<svg
   xmlns:dc="http://purl.org/dc/elements/1.1/"
   xmlns:cc="http://creativecommons.org/ns#"
   xmlns:rdf="http://www.w3.org/1999/02/22-rdf-syntax-ns#"
   xmlns:svg="http://www.w3.org/2000/svg"
   xmlns="http://www.w3.org/2000/svg"
   width="48"
   height="48"
   viewBox="0 0 12.69984 12.69984"
   version="1.1"
   id="svg17730">
  <defs
     id="defs17724" />
  <metadata
     id="metadata17727">
    <rdf:RDF>
      <cc:Work
         rdf:about="">
        <dc:format>image/svg+xml</dc:format>
        <dc:type
           rdf:resource="http://purl.org/dc/dcmitype/StillImage" />
        <dc:title></dc:title>
      </cc:Work>
    </rdf:RDF>
  </metadata>
  <rect
     transform="matrix(0,1,1,0,0,0)"
     style="opacity:1;fill-opacity:1;stroke:none;stroke-width:0.52916002;stroke-linecap:round;stroke-linejoin:round;stroke-miterlimit:4;stroke-dasharray:none;stroke-opacity:1"
     id="rect6830"
     width="1.0583199"
     height="11.64152"
     x="2.6458001"
     y="0.52916002"
     ry="0.52916002"
     class="base" />
  <rect
     transform="matrix(0,1,1,0,0,0)"
     ry="0.24274822"
     y="0.52916104"
     x="8.9957209"
     height="2.1166401"
     width="1.0583202"
     id="rect6840"
     style="opacity:1;fill-opacity:1;stroke:none;stroke-width:0.52916002;stroke-linecap:round;stroke-linejoin:round;stroke-miterlimit:4;stroke-dasharray:none;stroke-opacity:1"
     class="base" />
  <rect
     transform="matrix(0,1,1,0,0,0)"
     ry="0.25428841"
     y="0.52916086"
     x="5.8207603"
     height="1.0583199"
     width="1.0583198"
     id="rect6844"
     style="opacity:1;fill-opacity:1;stroke:none;stroke-width:0.52916002;stroke-linecap:round;stroke-linejoin:round;stroke-miterlimit:4;stroke-dasharray:none;stroke-opacity:1"
     class="base" />
  <rect
     class="base"
     style="opacity:1;fill-opacity:1;stroke:none;stroke-width:0.52916002;stroke-linecap:round;stroke-linejoin:round;stroke-miterlimit:4;stroke-dasharray:none;stroke-opacity:1"
     id="rect11420"
     width="1.0583198"
     height="1.0583199"
     x="5.8207603"
     y="2.6458004"
     ry="0.25428841"
     transform="matrix(0,1,1,0,0,0)" />
  <rect
     transform="matrix(0,1,1,0,0,0)"
     ry="0.25428841"
     y="4.7624412"
     x="5.8207603"
     height="1.0583199"
     width="1.0583198"
     id="rect11422"
     style="opacity:1;fill-opacity:1;stroke:none;stroke-width:0.52916002;stroke-linecap:round;stroke-linejoin:round;stroke-miterlimit:4;stroke-dasharray:none;stroke-opacity:1"
     class="base" />
  <rect
     class="base"
     style="opacity:1;fill-opacity:1;stroke:none;stroke-width:0.52916002;stroke-linecap:round;stroke-linejoin:round;stroke-miterlimit:4;stroke-dasharray:none;stroke-opacity:1"
     id="rect11424"
     width="1.0583198"
     height="1.0583199"
     x="5.8207603"
     y="6.8790808"
     ry="0.25428841"
     transform="matrix(0,1,1,0,0,0)" />
  <rect
     transform="matrix(0,1,1,0,0,0)"
     ry="0.25428841"
     y="8.9957218"
     x="5.8207603"
     height="1.0583199"
     width="1.0583198"
     id="rect11426"
     style="opacity:1;fill-opacity:1;stroke:none;stroke-width:0.52916002;stroke-linecap:round;stroke-linejoin:round;stroke-miterlimit:4;stroke-dasharray:none;stroke-opacity:1"
     class="base" />
  <rect
     class="base"
     style="opacity:1;fill-opacity:1;stroke:none;stroke-width:0.52916002;stroke-linecap:round;stroke-linejoin:round;stroke-miterlimit:4;stroke-dasharray:none;stroke-opacity:1"
     id="rect11428"
     width="1.0583198"
     height="1.0583199"
     x="5.8207603"
     y="11.112363"
     ry="0.25428841"
     transform="matrix(0,1,1,0,0,0)" />
  <rect
     class="base"
     style="opacity:1;fill-opacity:1;stroke:none;stroke-width:0.52916002;stroke-linecap:round;stroke-linejoin:round;stroke-miterlimit:4;stroke-dasharray:none;stroke-opacity:1"
     id="rect11430"
     width="1.0583202"
     height="2.1166401"
     x="8.9957209"
     y="3.7041206"
     ry="0.24274822"
     transform="matrix(0,1,1,0,0,0)" />
  <rect
     transform="matrix(0,1,1,0,0,0)"
     ry="0.24274822"
     y="6.8790808"
     x="8.9957209"
     height="2.1166401"
     width="1.0583202"
     id="rect11432"
     style="opacity:1;fill-opacity:1;stroke:none;stroke-width:0.52916002;stroke-linecap:round;stroke-linejoin:round;stroke-miterlimit:4;stroke-dasharray:none;stroke-opacity:1"
     class="base" />
  <rect
     class="base"
     style="opacity:1;fill-opacity:1;stroke:none;stroke-width:0.52916002;stroke-linecap:round;stroke-linejoin:round;stroke-miterlimit:4;stroke-dasharray:none;stroke-opacity:1"
     id="rect11434"
     width="1.0583202"
     height="2.1166401"
     x="8.9957209"
     y="10.054041"
     ry="0.24274822"
     transform="matrix(0,1,1,0,0,0)" />
</svg>
