<!-- Generated by IcoMoon.io -->
<svg version="1.1" xmlns="http://www.w3.org/2000/svg" width="1024" height="1024" viewBox="0 0 1024 1024">
<title></title>
<g id="icomoon-ignore">
</g>
<path class="base" d="M37.19 974.972h958.982v-920h-958.982v920zM956.488 935.288h-879.614v-840.628h879.616v840.628zM517.098 286.794l-8.94 12.526-0.214-0.148-258.076 368.89h533.624l-266.394-381.268zM126.334 858.436h784.158v38.27h-784.158v-38.27zM126.334 754.222h784.158v38.27h-784.158v-38.27zM126.334 650.006h86.304v38.27h-86.304v-38.27zM126.334 545.792h139.77v38.27h-139.77v-38.27zM126.334 441.576h209.076v38.268h-209.076v-38.268zM126.334 337.36h279.374v38.268h-279.374v-38.268zM824.188 650.006h86.304v38.27h-86.306v-38.27zM763.052 545.792h147.442v38.27h-147.442v-38.27zM689.866 441.576h220.626v38.268h-220.626v-38.268zM622.54 337.36h287.952v38.268h-287.952v-38.268zM126.334 233.146h336.798v38.268h-336.798v-38.268zM562.144 233.146h348.348v38.268h-348.348v-38.268zM122.868 128.93h784.158v38.268h-784.158v-38.268z"></path>
</svg>
