<?xml version="1.0" encoding="UTF-8" standalone="no"?>
<svg
   xmlns:dc="http://purl.org/dc/elements/1.1/"
   xmlns:cc="http://creativecommons.org/ns#"
   xmlns:rdf="http://www.w3.org/1999/02/22-rdf-syntax-ns#"
   xmlns:svg="http://www.w3.org/2000/svg"
   xmlns="http://www.w3.org/2000/svg"
   width="48"
   height="48"
   viewBox="0 0 12.69984 12.69984"
   version="1.1"
   id="svg17730">
  <defs
     id="defs17724" />
  <metadata
     id="metadata17727">
    <rdf:RDF>
      <cc:Work
         rdf:about="">
        <dc:format>image/svg+xml</dc:format>
        <dc:type
           rdf:resource="http://purl.org/dc/dcmitype/StillImage" />
        <dc:title></dc:title>
      </cc:Work>
    </rdf:RDF>
  </metadata>
  <rect
     class="base"
     ry="0.79373884"
     rx="0.79374164"
     y="0.79373997"
     x="1.3229017"
     height="11.11236"
     width="10.054038"
     id="rect9790"
     style="opacity:1;fill:none;fill-opacity:1;stroke:#000000;stroke-width:0.52916002;stroke-linecap:round;stroke-linejoin:round;stroke-miterlimit:4;stroke-dasharray:none;stroke-opacity:1"
     transform="matrix(0,1,1,0,0,0)" />
  <path
     class="base"
     id="rect11714"
     transform="scale(0.26458)"
     d="m 6,10 v 2 2 h 4 v -2 -2 z m 8,0 v 2 2 h 4 v -2 -2 z m 8,0 v 2 2 h 4 v -2 -2 z m 8,0 v 2 2 h 4 v -2 -2 z m 8,0 v 2 2 h 4 V 12 10 Z M 6,18 v 2 2 h 4 v -2 -2 z m 8,0 v 2 2 h 4 v -2 -2 z m 8,0 v 2 2 h 4 v -2 -2 z m 8,0 v 2 2 h 4 v -2 -2 z m 8,0 v 2 2 h 4 V 20 18 Z M 6,26 v 2 2 h 4 v -2 -2 z m 8,0 v 2 2 h 4 v -2 -2 z m 8,0 v 2 2 h 4 v -2 -2 z m 8,0 v 2 2 h 4 v -2 -2 z m 8,0 v 2 2 h 4 V 28 26 Z M 6,34 v 2 2 h 4 v -2 -2 z m 8,0 v 2 2 h 4 v -2 -2 z m 8,0 v 2 2 h 4 v -2 -2 z m 8,0 v 2 2 h 4 v -2 -2 z m 8,0 v 2 2 h 4 v -2 -2 z"
     style="opacity:1;fill:#000000;fill-opacity:1;stroke:none;stroke-width:2;stroke-linecap:round;stroke-linejoin:round;stroke-miterlimit:4;stroke-dasharray:none;stroke-opacity:1" />
</svg>
