<?xml version="1.0" encoding="UTF-8" standalone="no"?>
<svg
   xmlns:dc="http://purl.org/dc/elements/1.1/"
   xmlns:cc="http://creativecommons.org/ns#"
   xmlns:rdf="http://www.w3.org/1999/02/22-rdf-syntax-ns#"
   xmlns:svg="http://www.w3.org/2000/svg"
   xmlns="http://www.w3.org/2000/svg"
   id="svg17730"
   version="1.1"
   viewBox="0 0 12.69984 12.69984"
   height="48"
   width="48">
  <defs
     id="defs17724" />
  <metadata
     id="metadata17727">
    <rdf:RDF>
      <cc:Work
         rdf:about="">
        <dc:format>image/svg+xml</dc:format>
        <dc:type
           rdf:resource="http://purl.org/dc/dcmitype/StillImage" />
        <dc:title></dc:title>
      </cc:Work>
    </rdf:RDF>
  </metadata>
  <path
     class="base"
     id="path6170"
     transform="scale(0.26458)"
     d="M 2.9003906,8.0019531 C 1.5959025,8.0929446 1.6908992,10.038482 2.9980466,10.001953 H 13 c 1.364011,0.03103 1.364011,-2.0310313 0,-1.9999999 H 2.9980469 c -0.032533,-0.00159 -0.065124,-0.00159 -0.097656,0 z m 32.0019534,0 c -1.301577,0.092326 -1.208746,2.0323729 0.0957,1.9999999 H 45 c 1.364011,0.03103 1.364011,-2.0310313 0,-1.9999999 H 34.998047 c -0.03188,-0.00153 -0.06382,-0.00153 -0.0957,0 z M 2.9003906,12.003906 c -1.3044915,0.09099 -1.2094945,2.036533 0.097656,2 H 13 c 1.364008,0.03103 1.364008,-2.031028 0,-2 H 2.9980469 c -0.032533,-0.0016 -0.065124,-0.0016 -0.097656,0 z m 32.0019534,0 c -1.30158,0.09232 -1.208749,2.032376 0.0957,2 H 45 c 1.364008,0.03103 1.364008,-2.031028 0,-2 H 34.998047 c -0.03188,-0.0015 -0.06382,-0.0015 -0.0957,0 z M 2.9980469,15.996094 c -1.3346348,0 -1.3346348,2.001953 0,2.001953 H 13 c 1.334635,0 1.334635,-2.001953 0,-2.001953 z m 32.0000001,0 c -1.334635,0 -1.334635,2.001953 0,2.001953 H 45 c 1.334635,0 1.334635,-2.001953 0,-2.001953 z M 2.9980469,19.998047 c -1.3033472,0.02965 -1.3033472,1.970352 0,2 H 13 c 1.303347,-0.02965 1.303347,-1.970352 0,-2 z m 32.0000001,0 c -1.303347,0.02965 -1.303347,1.970352 0,2 H 45 c 1.303347,-0.02965 1.303347,-1.970352 0,-2 z m -32.0000001,4 c -1.3346348,0 -1.3346348,2.001953 0,2.001953 H 13 c 1.334635,0 1.334635,-2.001953 0,-2.001953 z m 32.0000001,0 c -1.334635,0 -1.334635,2.001953 0,2.001953 H 45 c 1.334635,0 1.334635,-2.001953 0,-2.001953 z M 2.9980469,28 c -1.3033472,0.02965 -1.3033472,1.970352 0,2 H 13 c 1.303347,-0.02965 1.303347,-1.970352 0,-2 z m 32.0000001,0 c -1.303347,0.02965 -1.303347,1.970352 0,2 H 45 c 1.303347,-0.02965 1.303347,-1.970352 0,-2 z M 2.9003906,32 c -1.3346347,0.0651 -1.2369787,2.067057 0.097656,2.001953 H 13 C 14.334635,34.001953 14.334635,32 13,32 H 2.9980469 c -0.032533,-0.0016 -0.065124,-0.0016 -0.097656,0 z m 32.0019534,0 c -1.334158,0.06423 -1.238458,2.066186 0.0957,2.001953 H 45 C 46.334635,34.001953 46.334635,32 45,32 H 34.998047 c -0.03188,-0.0015 -0.06382,-0.0015 -0.0957,0 z M 2.9003906,36.001953 c -1.3044326,0.09104 -1.2094409,2.036475 0.097656,2 H 13 c 1.364068,0.03109 1.364068,-2.03109 0,-2 H 2.9980469 c -0.032533,-0.0016 -0.065124,-0.0016 -0.097656,0 z m 32.0019534,0 c -1.301527,0.09237 -1.2087,2.032323 0.0957,2 H 45 c 1.364068,0.03109 1.364068,-2.03109 0,-2 H 34.998047 c -0.03188,-0.0015 -0.06382,-0.0015 -0.0957,0 z"
     style="color:#000000;font-style:normal;font-variant:normal;font-weight:normal;font-stretch:normal;font-size:medium;line-height:normal;font-family:sans-serif;font-variant-ligatures:normal;font-variant-position:normal;font-variant-caps:normal;font-variant-numeric:normal;font-variant-alternates:normal;font-feature-settings:normal;text-indent:0;text-align:start;text-decoration:none;text-decoration-line:none;text-decoration-style:solid;text-decoration-color:#000000;letter-spacing:normal;word-spacing:normal;text-transform:none;writing-mode:lr-tb;direction:ltr;text-orientation:mixed;dominant-baseline:auto;baseline-shift:baseline;text-anchor:start;white-space:normal;shape-padding:0;clip-rule:nonzero;display:inline;overflow:visible;visibility:visible;opacity:1;isolation:auto;mix-blend-mode:normal;color-interpolation:sRGB;color-interpolation-filters:linearRGB;solid-color:#000000;solid-opacity:1;vector-effect:none;fill-opacity:1;fill-rule:evenodd;stroke:none;stroke-width:2;stroke-linecap:round;stroke-linejoin:miter;stroke-miterlimit:4;stroke-dasharray:none;stroke-dashoffset:0;stroke-opacity:1;color-rendering:auto;image-rendering:auto;shape-rendering:auto;text-rendering:auto;enable-background:accumulate" />
  <path
     class="base"
     id="path6268"
     d="M 4.23328,6.34992 5.2916,5.02702 V 6.08534 H 7.40824 V 5.02702 l 1.05832,1.3229 -1.05832,1.3229 V 6.6145 H 5.2916 v 1.05832 z"
     style="fill-opacity:1;fill-rule:evenodd;stroke:none;stroke-width:0.26458001px;stroke-linecap:butt;stroke-linejoin:miter;stroke-opacity:1" />
</svg>
