<?xml version="1.0" encoding="UTF-8" standalone="no"?>
<svg
   xmlns:dc="http://purl.org/dc/elements/1.1/"
   xmlns:cc="http://creativecommons.org/ns#"
   xmlns:rdf="http://www.w3.org/1999/02/22-rdf-syntax-ns#"
   xmlns:svg="http://www.w3.org/2000/svg"
   xmlns="http://www.w3.org/2000/svg"
   enable-background="new"
   id="svg4513"
   version="1.1"
   viewBox="0 0 16.933333 16.933334"
   height="64"
   width="64">
  <defs
     id="defs4507" />
  <g
     style="display:inline"
     transform="translate(0,-280.06665)"
     id="layer1">
    <path
       class="base"
       style="stroke-width:0.01453202"
       id="path5"
       d="m 15.847431,287.31256 c 0,0.75337 0,1.50669 0,2.26002 -0.69654,0.11976 -1.393722,0.23811 -2.08956,0.36391 -0.04489,0.007 -0.09455,0.0673 -0.114952,0.11431 -0.129248,0.29665 -0.244192,0.59933 -0.378198,0.89325 -0.03879,0.0853 -0.04419,0.13724 0.01293,0.21458 0.380917,0.51524 0.756397,1.03382 1.133192,1.55243 0.02721,0.0376 0.05238,0.0767 0.06325,0.0928 -0.54415,0.53678 -1.077428,1.06343 -1.616843,1.59548 -0.03129,-0.0214 -0.07891,-0.0532 -0.125828,-0.0861 -0.516269,-0.35783 -1.033207,-0.71637 -1.549476,-1.07486 -0.05442,-0.0376 -0.09726,-0.0692 -0.178868,-0.0329 -0.319686,0.14195 -0.645509,0.26906 -0.967241,0.40694 -0.039451,0.0169 -0.087071,0.0627 -0.093881,0.10096 -0.1271959,0.68809 -0.2482835,1.37686 -0.3706862,2.06565 -0.7618039,0 -1.5236371,0 -2.2854704,0 -0.1149506,-0.68541 -0.2285555,-1.37083 -0.3475977,-2.05558 -0.00677,-0.0389 -0.051674,-0.0874 -0.090458,-0.10285 -0.3516602,-0.14063 -0.7053662,-0.27443 -1.0849092,-0.4204 -0.5638781,0.39011 -1.1590291,0.80176 -1.7406189,1.20399 -0.5428053,-0.53475 -1.0774271,-1.06209 -1.6168129,-1.59346 0.021072,-0.0303 0.04761,-0.0693 0.075522,-0.10756 0.3693426,-0.51188 0.7380132,-1.02374 1.1094015,-1.53361 0.046239,-0.0639 0.059186,-0.11094 0.023119,-0.19104 -0.1407868,-0.31209 -0.2659665,-0.63094 -0.4033338,-0.94437 -0.019027,-0.0431 -0.068042,-0.0948 -0.1108584,-0.10286 -0.6863103,-0.12373 -1.3739945,-0.24081 -2.0609767,-0.35986 0,-0.75332 0,-1.50669 0,-2.26004 0.6870115,-0.11094 1.3760402,-0.22197 2.0630227,-0.34035 0.044892,-0.007 0.095223,-0.066 0.1156521,-0.11227 0.1360228,-0.3094 0.2598287,-0.62353 0.3992712,-0.9309 0.036067,-0.078 0.026509,-0.12505 -0.019027,-0.18969 -0.3639064,-0.50986 -0.7243932,-1.02104 -1.0856105,-1.53227 -0.032646,-0.0457 -0.063949,-0.0922 -0.079586,-0.11432 0.5455234,-0.54082 1.0781285,-1.06882 1.614767,-1.60019 0.5434775,0.38338 1.1005749,0.77486 1.654925,1.17036 0.072104,0.0519 0.1238053,0.0532 0.2054372,0.0175 0.3027049,-0.13181 0.6101153,-0.2549 0.9189289,-0.3733 0.074822,-0.0289 0.1163235,-0.0593 0.1292423,-0.14253 0.1074676,-0.67667 0.2197002,-1.35265 0.3298864,-2.02933 0.7618332,0 1.5236365,0 2.2854407,0 0.1197221,0.68474 0.2373831,1.36949 0.3618607,2.05354 0.0082,0.043 0.05851,0.0942 0.10204,0.11301 0.321059,0.13856 0.644838,0.27105 0.970631,0.40018 0.03945,0.0154 0.103407,0.0118 0.138073,-0.0103 0.168699,-0.11094 0.330559,-0.2307 0.494493,-0.34775 0.406082,-0.28857 0.812834,-0.57645 1.202578,-0.85357 0.542104,0.53607 1.075381,1.06409 1.614795,1.59747 -0.02382,0.0342 -0.05509,0.0814 -0.08845,0.12784 -0.365281,0.51454 -0.731876,1.02845 -1.092392,1.54637 -0.02993,0.0431 -0.04013,0.12447 -0.02041,0.17286 0.123808,0.31413 0.255738,0.62557 0.392462,0.93428 0.01973,0.0451 0.07551,0.0968 0.121757,0.10492 0.691748,0.11771 1.385539,0.22801 2.079332,0.33966 z M 3.1951454,284.1492 c 0.3550506,0.50109 0.7108025,1.01025 1.0740369,1.51407 0.070759,0.0976 0.083648,0.16815 0.016308,0.27578 -0.2645927,0.42444 -0.458456,0.88047 -0.5761242,1.36479 -0.033991,0.13856 -0.097969,0.18899 -0.2353365,0.20986 -0.5761241,0.0867 -1.1495301,0.18968 -1.724982,0.27778 -0.1027051,0.0154 -0.1231041,0.0564 -0.1217607,0.1473 0.00409,0.30469 0.00138,0.61007 0.00138,0.91545 0,0.074 0,0.14727 0,0.22197 0.6352796,0.11167 1.2460965,0.22127 1.858287,0.32352 0.1169953,0.0196 0.1836629,0.0566 0.2135915,0.18027 0.1183401,0.49439 0.3149219,0.95983 0.5849508,1.39165 0.068042,0.1089 0.051703,0.17759 -0.019729,0.27443 -0.3693426,0.49973 -0.7305309,1.00488 -1.0862536,1.49726 0.3060659,0.30133 0.604679,0.59596 0.9114758,0.89867 0.029928,-0.0202 0.073447,-0.0498 0.1169953,-0.0793 0.4856664,-0.33633 0.9706314,-0.67198 1.4555964,-1.00964 0.057812,-0.0404 0.1033768,-0.066 0.1788697,-0.0202 0.4720466,0.28452 0.9774411,0.48967 1.5134369,0.62419 0.044192,0.0118 0.09794,0.0733 0.1067958,0.11977 0.063276,0.32757 0.115652,0.65647 0.1713873,0.98539 0.052375,0.30805 0.1047498,0.61612 0.1571248,0.92618 0.4339639,0 0.8515895,0 1.2733356,0 0.00683,-0.0289 0.013671,-0.0512 0.017683,-0.0732 0.1060959,-0.59055 0.214935,-1.18046 0.3162953,-1.77238 0.019734,-0.11433 0.055798,-0.18228 0.1822889,-0.21187 0.5094586,-0.12036 0.9849246,-0.32627 1.4311336,-0.59597 0.07821,-0.047 0.131966,-0.041 0.205437,0.0103 0.300629,0.21456 0.606051,0.4231 0.910102,0.63362 0.228556,0.15806 0.456411,0.31681 0.665909,0.46207 0.307441,-0.30604 0.604711,-0.60133 0.907385,-0.90332 -0.36595,-0.50313 -0.741432,-1.02241 -1.121648,-1.53828 -0.05171,-0.0706 -0.06596,-0.12372 -0.01701,-0.20316 0.277511,-0.44999 0.480201,-0.93225 0.604006,-1.44548 0.02312,-0.0942 0.07348,-0.12916 0.164607,-0.14327 0.294524,-0.0464 0.588371,-0.0989 0.882891,-0.14998 0.344881,-0.06 0.68903,-0.12035 1.043407,-0.18229 0,-0.40223 0.0027,-0.79235 -0.0048,-1.18248 -7.01e-4,-0.0323 -0.06529,-0.0853 -0.106794,-0.0922 -0.593134,-0.10021 -1.18694,-0.19641 -1.78145,-0.28857 -0.110182,-0.0168 -0.176152,-0.0504 -0.204735,-0.17149 -0.11837,-0.49977 -0.321059,-0.96657 -0.587696,-1.40646 -0.04827,-0.0793 -0.05442,-0.13519 0.004,-0.21593 0.350316,-0.48427 0.693794,-0.97328 1.039316,-1.46164 0.02923,-0.0418 0.05579,-0.0847 0.06462,-0.0989 -0.309486,-0.30874 -0.603333,-0.602 -0.902619,-0.90064 -0.51355,0.36457 -1.038673,0.73517 -1.560347,1.11116 -0.07348,0.0525 -0.125829,0.0585 -0.204735,0.0118 -0.397926,-0.23546 -0.81146,-0.44664 -1.2665262,-0.54282 -0.2591565,-0.0552 -0.3496146,-0.17688 -0.3843068,-0.42844 -0.076866,-0.5603 -0.1911154,-1.11591 -0.2931771,-1.68695 -0.4101735,0 -0.8142087,-9.9e-4 -1.2182146,0.004 -0.025865,6.9e-4 -0.065965,0.07 -0.073447,0.11094 -0.099986,0.58046 -0.1972539,1.16295 -0.2897574,1.74615 -0.017011,0.10564 -0.054421,0.16144 -0.1686987,0.189 -0.5081126,0.1224 -0.988314,0.31547 -1.4358975,0.58521 -0.082976,0.0504 -0.1462519,0.0552 -0.2285557,-0.0103 -0.1421612,-0.11301 -0.2958951,-0.21256 -0.4448363,-0.31817 -0.3720607,-0.26234 -0.7441214,-0.52465 -1.1053098,-0.77956 -0.3040492,0.30066 -0.599272,0.59325 -0.908056,0.89864 z m 7.9106306,4.31424 c -0.0048,1.45759 -1.2025765,2.63468 -2.673839,2.62728 -1.4746816,-0.007 -2.6636393,-1.19391 -2.6534391,-2.64812 0.010193,-1.45354 1.1998597,-2.62189 2.6670295,-2.6199 1.4732781,9.9e-4 2.6650126,1.18519 2.6602486,2.64074 z m -2.6976298,2.04277 c 1.113464,0.0418 2.0589308,-0.86166 2.1065718,-2.0125 0.04559,-1.09909 -0.8658832,-2.03537 -2.0310782,-2.08649 -1.1155102,-0.0491 -2.0739246,0.86699 -2.1140534,2.01921 -0.038111,1.1031 0.876783,2.03672 2.0385598,2.07975 z" />
  </g>
</svg>
