<?xml version="1.0" encoding="UTF-8" standalone="no"?>
<svg
   xmlns:dc="http://purl.org/dc/elements/1.1/"
   xmlns:cc="http://creativecommons.org/ns#"
   xmlns:rdf="http://www.w3.org/1999/02/22-rdf-syntax-ns#"
   xmlns:svg="http://www.w3.org/2000/svg"
   xmlns="http://www.w3.org/2000/svg"
   width="64"
   height="64"
   viewBox="0 0 16.933333 16.933334"
   version="1.1"
   id="svg8">
  <defs
     id="defs2" />
  <metadata
     id="metadata14711">
    <rdf:RDF>
      <cc:Work
         rdf:about="">
        <dc:title></dc:title>
        <dc:format>image/svg+xml</dc:format>
        <dc:type
           rdf:resource="http://purl.org/dc/dcmitype/StillImage" />
      </cc:Work>
    </rdf:RDF>
  </metadata>
  <g
     transform="matrix(0.01268198,0,0,0.01268198,-2.5953637,1.8768752)"
     id="g17153">
    <path
       style="stroke-width:1.132797"
       class="base"
       d="m 1392.7646,991.0911 c -71.5498,28.9452 -143.0995,57.947 -214.7036,86.8923 13.7092,1.1056 27.3661,2.1614 41.0752,3.2692 -27.101,-366.34419 -54.1499,-732.6885 -81.1989,-1098.980711 -0.5278,-6.905531 -13.3397,-8.013406 -17.8732,-7.961298 C 1041.2373,-24.844342 971.00612,45.069628 923.28818,99.430294 699.4112,354.83753 607.24683,738.52723 526.73215,1057.3665 c 13.76122,-6.645 27.52244,-13.2877 41.28366,-19.8784 -58.1578,0 -116.26123,0 -174.41904,0 -20.98392,0 -63.48194,31.7954 -23.51687,31.7954 58.15781,0 116.26124,0 174.41904,0 12.23421,0 37.59527,-5.2721 41.28366,-19.8783 78.3533,-310.29571 168.14334,-649.59109 361.60018,-911.37824 34.53445,-46.716556 75.60962,-92.483823 126.59682,-121.587645 10.6506,-6.064996 17.2412,-8.6477734 27.8396,-11.0198498 -0.2107,0.054374 -23.4103,-11.3347682 -22.5676,0.5278831 26.8904,363.7615417 53.7286,727.4687017 80.619,1091.2278517 1.1056,14.6584 34.7474,5.8 41.0752,3.2693 71.5498,-28.9453 143.0995,-57.9471 214.7036,-86.8923 38.4901,-15.65973 3.0064,-32.9553 -22.8848,-22.4611 z M 1304.9751,-30.696372 c -161.87,0 -332.23126,-17.241172 -492.99332,3.425578 C 552.30391,6.0538312 410.20585,217.90729 397.07673,468.09459 c -1.58138,30.00099 58.57921,20.77549 59.89778,-4.95713 11.96914,-228.19971 137.9339,-440.952599 385.06264,-451.918074 151.79936,-6.7492051 305.23445,-0.104218 457.24455,-0.104218 33.3246,-0.05437 45.9779,-41.813806 5.6956,-41.813806 v 0 z M 691.71272,642.72658 c 134.61254,0 269.22284,0 403.77878,0 27.2596,0 62.3241,-8.33059 77.984,-33.32463 14.8146,-23.62108 -12.445,-38.49017 -33.1117,-38.49017 -134.6125,0 -269.22282,0 -403.77873,0 -27.25962,0 -62.32196,8.33059 -77.98401,33.32462 -14.81699,23.67546 12.44491,38.49018 33.11166,38.49018 z M 333.699,1070.1286 c 126.70335,0 253.40444,0 380.10553,0 22.0397,0 63.16703,-33.4289 23.09547,-33.4289 -126.7011,0 -253.40445,0 -380.10553,0 -21.98533,0 -63.11493,33.4289 -23.09547,33.4289 z"
       id="path17141" />
  </g>
</svg>
