<?xml version="1.0" encoding="UTF-8" standalone="no"?>
<svg
   xmlns:dc="http://purl.org/dc/elements/1.1/"
   xmlns:cc="http://creativecommons.org/ns#"
   xmlns:rdf="http://www.w3.org/1999/02/22-rdf-syntax-ns#"
   xmlns:svg="http://www.w3.org/2000/svg"
   xmlns="http://www.w3.org/2000/svg"
   width="64"
   height="64"
   viewBox="0 0 16.933333 16.933334"
   version="1.1"
   id="svg8">
  <defs
     id="defs2" />
  <metadata
     id="metadata14711">
    <rdf:RDF>
      <cc:Work
         rdf:about="">
        <dc:title></dc:title>
      </cc:Work>
    </rdf:RDF>
  </metadata>
  <path
     class="base"
     id="rect16548"
     transform="scale(0.26458334)"
     d="M 8,4 C 5.7840001,4 4,5.7840001 4,8 v 48 c 0,2.216 1.7840001,4 4,4 h 48 c 2.216,0 4,-1.784 4,-4 V 8 C 60,5.7840001 58.216,4 56,4 Z m 3.947266,4 H 52.052734 C 54.240002,8 56,9.7599977 56,11.947266 v 0.105468 C 56,14.240002 54.240002,16 52.052734,16 H 11.947266 C 9.7599977,16 8,14.240002 8,12.052734 V 11.947266 C 8,9.7599977 9.7599977,8 11.947266,8 Z m 1,12 H 25.052734 C 27.240004,20 29,21.759996 29,23.947266 V 52.052734 C 29,54.240004 27.240004,56 25.052734,56 H 12.947266 C 10.759996,56 9,54.240004 9,52.052734 V 23.947266 C 9,21.759996 10.759996,20 12.947266,20 Z M 38,20 c 1.108,0 2,0.892 2,2 v 31 c 0,1.108 -0.892,2 -2,2 -1.108,0 -2,-0.892 -2,-2 V 22 c 0,-1.108 0.892,-2 2,-2 z m 8,0 c 1.108,0 2,0.892 2,2 v 31 c 0,1.108 -0.892,2 -2,2 -1.108,0 -2,-0.892 -2,-2 V 22 c 0,-1.108 0.892,-2 2,-2 z m 8,0 c 1.108,0 2,0.892 2,2 v 31 c 0,1.108 -0.892,2 -2,2 -1.108,0 -2,-0.892 -2,-2 V 22 c 0,-1.108 0.892,-2 2,-2 z"
     style="opacity:1;fill-opacity:1;stroke:none;stroke-width:4;stroke-linecap:round;stroke-linejoin:round;stroke-miterlimit:4;stroke-dasharray:none;stroke-opacity:1" />
</svg>
