<?xml version="1.0" encoding="UTF-8" standalone="no"?>
<svg
   xmlns:dc="http://purl.org/dc/elements/1.1/"
   xmlns:cc="http://creativecommons.org/ns#"
   xmlns:rdf="http://www.w3.org/1999/02/22-rdf-syntax-ns#"
   xmlns:svg="http://www.w3.org/2000/svg"
   xmlns="http://www.w3.org/2000/svg"
   id="svg17730"
   version="1.1"
   viewBox="0 0 50.79936 50.79936"
   height="192"
   width="192">
  <defs
     id="defs17724" />
  <metadata
     id="metadata17727">
    <rdf:RDF>
      <cc:Work
         rdf:about="">
        <dc:format>image/svg+xml</dc:format>
        <dc:type
           rdf:resource="http://purl.org/dc/dcmitype/StillImage" />
        <dc:title></dc:title>
      </cc:Work>
    </rdf:RDF>
  </metadata>
  <g
     transform="translate(0,-246.20032)"
     id="layer1">
    <path
       class="base"
       style="stroke-width:0.04531951"
       id="path5"
       d="m 39.697139,249.88633 c -0.258954,0.30771 -0.395365,0.49588 -0.557337,0.65866 -1.978106,1.9908 -3.955668,3.98223 -5.945829,5.96087 -0.272371,0.27074 -0.373885,0.55282 -0.371349,0.92942 0.01333,2.05896 0.0194,4.11763 -0.0026,6.17642 -0.0055,0.51311 0.173029,0.67019 0.676348,0.66456 1.970583,-0.0217 3.9418,-0.0246 5.912292,0.004 0.52208,0.007 0.885815,-0.17067 1.240303,-0.53032 1.729573,-1.75469 3.475915,-3.49296 5.219356,-5.23413 0.376242,-0.37562 0.764541,-0.73916 1.227796,-1.18593 0.138406,0.44559 0.266479,0.78023 0.34615,1.12583 0.419659,1.82502 0.268474,3.62365 -0.287869,5.39663 -0.600302,1.91277 -1.639115,3.54582 -3.124961,4.89761 -1.28073,1.16508 -2.746181,1.99123 -4.40705,2.47706 -1.134709,0.33183 -2.288635,0.47025 -3.471927,0.43444 -1.29242,-0.0395 -2.521123,-0.34533 -3.702513,-0.84104 -0.455821,-0.19115 -0.769796,-0.18427 -1.149482,0.19968 -3.095512,3.13113 -20.053254,20.03005 -21.816364,21.79967 -2.1516794,2.15921 -5.6183502,0.78893 -6.1618211,-1.84222 -0.2674756,-1.29442 0.03272,-2.36967 0.893701,-3.27416 1.5973309,-1.67772 19.7803321,-19.84595 21.7414881,-21.76741 0.436879,-0.42809 0.538124,-0.77433 0.285604,-1.36447 -0.707257,-1.65309 -0.993675,-3.41111 -0.758558,-5.19109 0.500055,-3.78917 2.404472,-6.69886 5.7505,-8.58206 1.748971,-0.98434 3.672059,-1.45466 5.684335,-1.36747 0.877567,0.0382 1.746615,0.27845 2.780352,0.45464 z" />
  </g>
</svg>
